<svg width="1024" height="1024" viewBox="0 0 1024 1024" fill="none" xmlns="http://www.w3.org/2000/svg">
<path d="M448.325 191.711C451.306 181.894 458.984 172.463 466.55 165.771C480.741 153.025 499.458 146.514 518.496 147.698C536.99 148.922 553.102 157.102 565.338 170.984C573.288 180.719 582.159 195.961 582.026 208.965C583.973 218.511 582.219 233.975 582.819 244.495C583.888 247.024 585.283 248.601 587.909 249.58C600.647 254.326 621.529 243.487 630.297 260.655C631.7 263.401 632.532 266.423 633.013 269.454C634.461 275.579 633.851 303.639 632.8 310.524C632.369 313.347 631.521 315.945 630.288 318.518C629.367 321.016 626.454 323.728 624.268 325.179C619.264 328.501 613.913 329.176 608.09 329.576C593.515 330.577 578.725 330.087 564.115 330.095L481.78 329.952L433.123 330.115C426.099 330.149 414.033 331.276 407.466 329.621C402.275 328.314 397.48 325.44 394.812 320.707C393.456 318.301 392.22 315.125 391.8 312.373C390.646 304.809 390.824 275.158 392.791 268.117L393.019 265.86C402.728 238.98 425.327 257.275 439.997 248.195C440.75 247.153 441.637 246.02 442.004 244.771C443.118 240.987 442.851 236.304 442.911 232.364C443.089 220.845 442.112 201.606 448.325 191.711Z" fill="#838382"/>
<path d="M392.791 268.117C393.717 268.919 394.437 269.067 395.619 269.324C402.905 277.216 384.483 321.824 412.6 322.907C426.509 323.443 440.626 322.911 454.554 322.884L534.78 322.867C547.909 322.887 561.048 322.691 574.175 322.852C586.442 323.003 600.003 324.177 612.074 322.154C618.069 321.15 621.986 318.284 626.409 314.376C627.633 315.76 628.836 317.382 630.288 318.518C629.367 321.016 626.454 323.728 624.268 325.179C619.264 328.501 613.913 329.176 608.09 329.576C593.515 330.577 578.725 330.087 564.115 330.095L481.78 329.952L433.123 330.115C426.099 330.149 414.033 331.276 407.466 329.621C402.275 328.314 397.48 325.44 394.812 320.707C393.456 318.301 392.22 315.125 391.8 312.373C390.646 304.809 390.824 275.158 392.791 268.117Z" fill="url(#paint0_linear_105_337)"/>
<path d="M448.325 191.711C451.306 181.894 458.984 172.463 466.55 165.771C480.741 153.025 499.458 146.514 518.496 147.698C536.99 148.922 553.102 157.102 565.338 170.984C563.667 171.172 563.186 172.414 561.838 173.342C560.788 172.329 559.712 171.38 558.593 170.443L557.724 170.686C540.822 157.424 527.652 150.504 505.554 153.14C488.02 155.231 471.004 166.038 460.33 179.899C457.97 182.964 456.397 186.375 454.237 189.522C454.05 187.974 455.307 185.904 456.248 184.742C457.016 183.793 458.276 182.788 458.244 181.441C458.238 181.16 458.151 180.886 458.105 180.609C457.24 180.123 456.376 179.574 455.485 179.144C454.131 181.698 450.334 190.475 448.325 191.711Z" fill="url(#paint1_linear_105_337)"/>
<path d="M582.819 244.495C583.888 247.024 585.283 248.601 587.909 249.58C600.647 254.326 621.529 243.487 630.297 260.655C631.7 263.401 632.532 266.423 633.013 269.454L632.802 274.113C632.657 272.97 632.604 271.804 631.989 270.8C631.572 270.118 631.618 270.353 630.686 270.226C631.169 271.356 631.589 272.331 631.725 273.57L631.339 273.83C628.356 269.799 627.997 264.683 624.319 260.955C613.247 249.731 594.76 259.673 584.515 253.726C582.271 252.423 581.531 250.321 580.918 247.934C581.062 246.411 581.881 245.615 582.819 244.495Z" fill="url(#paint2_linear_105_337)"/>
<path d="M439.998 248.195C441.339 249.239 442.333 249.661 442.87 251.302C442.154 252.843 441.413 253.387 439.826 254.006C424.671 259.918 407.035 247.243 397.865 266.846L397.601 267.417L396.833 266.817C395.382 265.706 394.884 265.647 393.02 265.86C402.729 238.98 425.328 257.275 439.998 248.195Z" fill="url(#paint3_linear_105_337)"/>
<path d="M557.725 170.686L558.594 170.443C559.713 171.38 560.789 172.329 561.839 173.342C563.187 172.414 563.668 171.172 565.339 170.984C573.289 180.719 582.16 195.961 582.027 208.965L581.785 212.229C580.483 208.972 580.974 204.49 579.979 201.003C578.921 200.381 578.449 200.16 577.214 200.256C577.836 201.998 580.053 212.489 579.993 213.879C579.14 213.048 576.062 198.809 574.983 195.962C571.186 185.935 565.104 178.275 557.725 170.686Z" fill="url(#paint4_linear_105_337)"/>
<path d="M478.896 212.949C477.269 211.901 476.715 210.757 476.317 208.868C475.349 204.278 477.953 199.101 480.462 195.421C485.947 187.375 495.202 182.357 504.649 180.702C515.663 178.774 527.092 180.887 536.25 187.48C542.089 191.684 547.057 198.098 549.148 205.003C549.219 205.237 549.307 205.465 549.374 205.7C549.612 206.54 549.708 207.28 549.633 208.158C549.444 210.371 548.458 212.589 548.044 214.78C547.652 216.851 547.869 218.996 547.407 221.041C547.539 224.278 547.22 227.518 546.459 230.667C548.017 231.359 548.626 231.419 549.539 232.9C550.025 238.769 545.646 244.625 541.983 248.91C537.587 254.053 531.384 259.333 524.659 260.972L523.816 261.212C519.331 262.515 514.795 262.741 510.141 262.583C500.473 262.255 491.296 258.719 484.695 251.472C480.326 246.677 475.239 236.762 475.529 230.255L475.984 230.101C476.09 232.283 476.157 234.573 477.5 236.385L478.214 236.04L478.999 233.729C476.419 230.078 476.887 222.414 476.896 218.067L477.221 217.787C477.177 219.961 477.185 221.962 477.614 224.107C477.437 220.343 477.87 216.575 478.896 212.949Z" fill="#323330"/>
<path d="M478.897 212.949C477.27 211.901 476.716 210.757 476.318 208.868C475.35 204.278 477.954 199.101 480.463 195.421C485.948 187.375 495.203 182.357 504.65 180.702C515.664 178.774 527.093 180.887 536.251 187.48C542.09 191.684 547.058 198.098 549.149 205.003C549.22 205.237 549.308 205.465 549.375 205.7C549.613 206.54 549.709 207.28 549.634 208.158C549.445 210.371 548.459 212.589 548.045 214.78C547.653 216.851 547.87 218.996 547.408 221.041C546.709 203.89 533.651 189.789 516.604 187.775C499.557 185.762 483.573 196.433 478.897 212.949Z" fill="#585954"/>
<path d="M524.659 260.972L523.816 261.212C519.331 262.515 514.795 262.741 510.141 262.583C500.473 262.255 491.296 258.719 484.695 251.472C480.326 246.677 475.239 236.762 475.529 230.255L475.984 230.101C476.09 232.283 476.157 234.573 477.5 236.385L478.214 236.04L478.999 233.729C476.419 230.078 476.887 222.414 476.896 218.067L477.221 217.787C477.177 219.961 477.185 221.962 477.614 224.107C478.061 233.603 482.359 242.507 489.517 248.763C496.674 255.02 506.072 258.089 515.542 257.262C517.237 258.194 519.015 257.673 520.831 257.395L521.85 257.93C522.042 259.35 520.99 259.657 521.968 260.722L522.75 260.762C523.907 260.831 523.453 260.791 524.659 260.972Z" fill="url(#paint5_linear_105_337)"/>
<path d="M546.46 230.667C548.018 231.359 548.627 231.419 549.54 232.9C550.026 238.769 545.647 244.625 541.984 248.91C537.588 254.053 531.385 259.333 524.66 260.972C523.454 260.791 523.908 260.831 522.751 260.762L521.969 260.722C520.991 259.657 522.043 259.35 521.851 257.93L520.832 257.395C519.016 257.673 517.238 258.194 515.543 257.262C530.492 255.958 542.937 245.252 546.46 230.667Z" fill="url(#paint6_linear_105_337)"/>
<path d="M509.819 206.823C515.192 205.731 520.736 207.628 524.313 211.783C527.891 215.938 528.944 221.702 527.066 226.853C525.189 232.005 520.674 235.74 515.261 236.618C507.119 237.939 499.417 232.503 497.935 224.388C496.452 216.274 501.735 208.466 509.819 206.823Z" fill="#E7DFCE"/>
<path d="M596.436 281.957C597.964 283.193 598.614 284.316 599.071 286.212C598.52 285.919 597.491 285.406 597.069 284.902C596.156 283.811 596.314 283.263 596.436 281.957Z" fill="#71716D"/>
<defs>
<linearGradient id="paint0_linear_105_337" x1="510.191" y1="329.218" x2="510.322" y2="269.253" gradientUnits="userSpaceOnUse">
<stop stop-color="#4A4A49"/>
<stop offset="1" stop-color="#797978"/>
</linearGradient>
<linearGradient id="paint1_linear_105_337" x1="500.626" y1="197.384" x2="521.415" y2="145.814" gradientUnits="userSpaceOnUse">
<stop stop-color="#B2B2AF"/>
<stop offset="1" stop-color="#DFDED9"/>
</linearGradient>
<linearGradient id="paint2_linear_105_337" x1="606.469" y1="265.245" x2="609.356" y2="250.048" gradientUnits="userSpaceOnUse">
<stop stop-color="#B8B6B4"/>
<stop offset="1" stop-color="#DFDEDA"/>
</linearGradient>
<linearGradient id="paint3_linear_105_337" x1="418.111" y1="266.325" x2="418.383" y2="248.668" gradientUnits="userSpaceOnUse">
<stop stop-color="#929190"/>
<stop offset="1" stop-color="#BEBDBC"/>
</linearGradient>
<linearGradient id="paint4_linear_105_337" x1="572.688" y1="200.931" x2="568.514" y2="170.384" gradientUnits="userSpaceOnUse">
<stop stop-color="#ADADA9"/>
<stop offset="1" stop-color="#DBDAD8"/>
</linearGradient>
<linearGradient id="paint5_linear_105_337" x1="501.038" y1="245.02" x2="495.23" y2="258.16" gradientUnits="userSpaceOnUse">
<stop stop-color="#B2B1B2"/>
<stop offset="1" stop-color="#DCDCD6"/>
</linearGradient>
<linearGradient id="paint6_linear_105_337" x1="540.923" y1="229.732" x2="528.662" y2="263.299" gradientUnits="userSpaceOnUse">
<stop stop-color="#959393"/>
<stop offset="1" stop-color="#C5C4C2"/>
</linearGradient>
</defs>
</svg>
